<?xml version="1.0" encoding="UTF-8" standalone="no"?>
<svg
   xmlns:dc="http://purl.org/dc/elements/1.1/"
   xmlns:cc="http://creativecommons.org/ns#"
   xmlns:rdf="http://www.w3.org/1999/02/22-rdf-syntax-ns#"
   xmlns:svg="http://www.w3.org/2000/svg"
   xmlns="http://www.w3.org/2000/svg"
   xmlns:sodipodi="http://sodipodi.sourceforge.net/DTD/sodipodi-0.dtd"
   xmlns:inkscape="http://www.inkscape.org/namespaces/inkscape"
   viewBox="0 0 60 58.653999"
   x="0px"
   y="0px"
   version="1.1"
   id="svg12"
   sodipodi:docname="atom.svg"
   width="60"
   height="58.653999"
   inkscape:version="0.92.4 5da689c313, 2019-01-14">
  <metadata
     id="metadata18">
    <rdf:RDF>
      <cc:Work
         rdf:about="">
        <dc:format>image/svg+xml</dc:format>
        <dc:type
           rdf:resource="http://purl.org/dc/dcmitype/StillImage" />
        <dc:title></dc:title>
      </cc:Work>
    </rdf:RDF>
  </metadata>
  <defs
     id="defs16" />
  <sodipodi:namedview
     pagecolor="#ffffff"
     bordercolor="#666666"
     borderopacity="1"
     objecttolerance="10"
     gridtolerance="10"
     guidetolerance="10"
     inkscape:pageopacity="0"
     inkscape:pageshadow="2"
     inkscape:window-width="1920"
     inkscape:window-height="1053"
     id="namedview14"
     showgrid="false"
     fit-margin-top="0"
     fit-margin-left="0"
     fit-margin-right="0"
     fit-margin-bottom="0"
     inkscape:zoom="2.95"
     inkscape:cx="30"
     inkscape:cy="21.225"
     inkscape:window-x="0"
     inkscape:window-y="0"
     inkscape:window-maximized="1"
     inkscape:current-layer="svg12" />
  <g
     id="g6"
     transform="translate(-2,-2.571)">
    <path
       d="m 12.906,39.154 0.477,-1.943 C 6.465,35.514 4,33.34 4,31.871 c 0,-2.082 4.179,-4.307 11.107,-5.747 1.286,1.86 2.758,3.789 4.391,5.743 -5.259,6.285 -8.855,12.3 -9.754,16.491 a 4.5,4.5 0 1 0 5.907,5.874 29.878,29.878 0 0 0 9.149,-4.307 c 1.533,6.609 4,11.3 7.309,11.3 2.774,0 5.144,-3.27 6.853,-9.455 l -1.928,-0.533 c -1.627,5.89 -3.611,7.988 -4.925,7.988 -2,0 -4.143,-3.932 -5.556,-10.477 1.8,-1.257 3.671,-2.682 5.565,-4.267 6.9,5.755 13.99,9.991 18.409,9.991 a 4.173,4.173 0 0 0 3.073,-1.11 c 2.716,-2.716 0,-8.627 -2.75,-13.106 -0.185,-0.3 -0.392,-0.611 -0.588,-0.916 C 57.12,37.785 62,35.268 62,31.871 A 4.137,4.137 0 0 0 60.72,29.011 4.442,4.442 0 0 0 61,27.5 4.5,4.5 0 0 0 52.742,25.036 C 51.951,24.81 51.123,24.6 50.264,24.403 c 0.564,-0.879 1.1,-1.747 1.569,-2.587 3.1,-5.54 3.71,-9.494 1.769,-11.436 -2.557,-2.558 -7.995,-0.243 -12.1,2.15 l 0.998,1.729 c 5.66,-3.3 8.714,-3.436 9.685,-2.465 0.917,0.918 0.847,3.776 -2.1,9.046 -0.564,1.008 -1.219,2.056 -1.923,3.121 -2.278,-0.433 -4.728,-0.776 -7.319,-1.01 C 39.8,11.99 36.808,2.571 32.111,2.571 c -3.306,0 -5.765,4.669 -7.3,11.253 A 29.455,29.455 0 0 0 15.5,9.475 a 4.49,4.49 0 1 0 -5.691,6.188 30.334,30.334 0 0 0 4.122,8.7 C 6.972,25.911 2,28.443 2,31.871 c 0,3.808 5.931,6.062 10.906,7.283 z m 4.342,-13.435 c 1.835,-0.313 3.827,-0.575 5.958,-0.768 q -0.106,1.455 -0.17,2.928 c -0.763,0.817 -1.508,1.635 -2.221,2.451 -1.305,-1.568 -2.499,-3.113 -3.567,-4.611 z m 20.029,0.986 q 0.992,0.99 1.942,2 0.05,1.563 0.052,3.194 c 0,1.053 -0.021,2.1 -0.055,3.148 q -0.948,1 -1.939,1.993 c -0.716,0.716 -1.439,1.41 -2.164,2.093 Q 33.589,39.178 32,39.18 c -0.974,0 -1.942,-0.024 -2.908,-0.053 q -1.068,-1.01 -2.148,-2.087 c -0.665,-0.665 -1.309,-1.333 -1.943,-2 q -0.048,-1.536 -0.05,-3.139 0,-1.63 0.052,-3.191 c 0.634,-0.67 1.278,-1.338 1.941,-2 0.715,-0.715 1.443,-1.412 2.173,-2.1 Q 30.531,24.571 32,24.569 c 1.046,0 2.086,0.02 3.119,0.053 0.722,0.678 1.444,1.368 2.158,2.083 z m 0.874,-1.943 c 0.292,0.019 0.577,0.043 0.865,0.064 0.021,0.283 0.039,0.57 0.058,0.857 -0.129,-0.131 -0.253,-0.263 -0.383,-0.392 -0.179,-0.18 -0.36,-0.352 -0.54,-0.529 z m 3.032,11.1 q 1.143,-1.224 2.213,-2.451 c 1.283,1.545 2.475,3.08 3.543,4.578 -1.818,0.316 -3.8,0.579 -5.91,0.777 0.071,-0.953 0.114,-1.925 0.154,-2.901 z m -2.177,3.069 c -0.287,0.021 -0.575,0.04 -0.867,0.058 0.184,-0.181 0.369,-0.357 0.552,-0.54 0.128,-0.128 0.248,-0.257 0.374,-0.384 -0.019,0.293 -0.037,0.582 -0.059,0.869 z m 2.248,-6.1 c 0,-0.312 0.017,-0.622 0.017,-0.934 0,-0.312 0,-0.642 -0.007,-0.963 0.278,0.312 0.554,0.624 0.825,0.936 -0.279,0.321 -0.549,0.641 -0.835,0.961 z m -8.371,8.341 c -0.259,0.229 -0.517,0.454 -0.776,0.678 -0.265,-0.23 -0.526,-0.447 -0.793,-0.685 0.23,0 0.456,0.013 0.686,0.013 0.294,0 0.588,-0.004 0.883,-0.006 z m -6.806,-2.185 c -0.29,-0.018 -0.586,-0.028 -0.874,-0.048 -0.021,-0.291 -0.04,-0.586 -0.059,-0.881 0.13,0.131 0.255,0.263 0.386,0.394 0.18,0.18 0.37,0.356 0.547,0.535 z m -3.119,-6.171 q -0.42,-0.471 -0.828,-0.94 0.408,-0.471 0.828,-0.942 c 0,0.321 -0.007,0.642 -0.007,0.963 0,0.321 0.004,0.612 0.007,0.919 z M 32,22.564 c -0.216,0 -0.433,0 -0.65,0 0.253,-0.224 0.5,-0.458 0.756,-0.678 0.261,0.227 0.523,0.454 0.784,0.686 C 32.592,22.575 32.3,22.564 32,22.564 Z m -3.711,0.073 q -1.46,0.054 -2.908,0.152 c 0.2,-2.013 0.454,-3.9 0.761,-5.631 1.441,1.034 2.924,2.183 4.423,3.426 q -1.142,0.999 -2.276,2.053 z m -2.183,2.1 c -0.191,0.188 -0.387,0.367 -0.576,0.557 -0.13,0.129 -0.254,0.26 -0.382,0.39 0.019,-0.3 0.038,-0.6 0.059,-0.888 0.299,-0.023 0.593,-0.044 0.899,-0.062 z M 11.5,55 A 2.5,2.5 0 1 1 14,52.5 2.5,2.5 0 0 1 11.5,55 Z m 4.46,-2.9 a 4.478,4.478 0 0 0 -4.085,-4.064 c 1.063,-3.758 4.353,-9.08 8.948,-14.621 0.711,0.814 1.451,1.629 2.211,2.443 q 0.06,1.461 0.166,2.906 C 21.488,38.606 19.811,38.418 18.233,38.17 l -0.311,1.975 c 1.729,0.272 3.568,0.477 5.448,0.643 0.234,2.449 0.564,4.819 0.988,7.028 A 32.206,32.206 0 0 1 15.96,52.1 Z m 10.174,-5.511 c -0.307,-1.737 -0.563,-3.625 -0.758,-5.64 0.966,0.064 1.937,0.123 2.923,0.159 0.75,0.7 1.5,1.38 2.269,2.046 -1.503,1.246 -2.99,2.4 -4.434,3.437 z M 49.148,41.3 c 3.846,6.254 4.04,9.643 3.04,10.644 -1.974,1.972 -9.5,-1.249 -18.541,-8.778 0.764,-0.667 1.529,-1.361 2.293,-2.072 q 1.45,-0.059 2.888,-0.158 c -0.131,1.341 -0.281,2.658 -0.47,3.911 l 1.977,0.3 c 0.211,-1.4 0.374,-2.873 0.515,-4.375 2.547,-0.233 5.016,-0.568 7.315,-1 0.342,0.517 0.674,1.028 0.983,1.528 z M 56.5,25 A 2.5,2.5 0 1 1 54,27.5 2.5,2.5 0 0 1 56.5,25 Z m -4.442,1.923 A 4.565,4.565 0 0 0 52,27.5 4.487,4.487 0 0 0 59.58,30.763 1.927,1.927 0 0 1 60,31.871 c 0,2.063 -4.1,4.266 -10.913,5.708 -1.287,-1.857 -2.755,-3.772 -4.369,-5.7 1.612,-1.925 3.071,-3.833 4.355,-5.686 q 1.577,0.334 2.985,0.73 z m -5.141,-1.146 c -1.064,1.492 -2.238,3.016 -3.518,4.556 q -1.074,-1.228 -2.213,-2.449 -0.061,-1.455 -0.167,-2.895 c 2.066,0.197 4.039,0.463 5.898,0.788 z M 32.111,4.571 c 2.7,0 5.65,7.155 6.731,18.231 q -1.429,-0.1 -2.9,-0.154 c -0.761,-0.707 -1.522,-1.4 -2.282,-2.062 1.181,-0.982 2.359,-1.927 3.514,-2.783 L 35.986,16.2 c -1.269,0.94 -2.564,1.984 -3.862,3.071 C 30.232,17.683 28.367,16.26 26.565,15 27.978,8.485 30.112,4.571 32.111,4.571 Z M 11.5,9 A 2.5,2.5 0 1 1 9,11.5 2.5,2.5 0 0 1 11.5,9 Z m 0.447,6.955 a 4.482,4.482 0 0 0 4.038,-4.307 32.321,32.321 0 0 1 8.382,4.282 c -0.425,2.205 -0.757,4.571 -0.991,7.017 -2.559,0.229 -5.043,0.558 -7.357,0.987 a 32.236,32.236 0 0 1 -4.072,-7.979 z"
       id="path2"
       inkscape:connector-curvature="0" />
    <path
       d="m 27.4,31.445 a 4.5,4.5 0 1 0 4.5,-4.5 4.5,4.5 0 0 0 -4.5,4.5 z m 7,0 a 2.5,2.5 0 1 1 -2.5,-2.5 2.5,2.5 0 0 1 2.5,2.5 z"
       id="path4"
       inkscape:connector-curvature="0" />
  </g>
</svg>
