<?xml version="1.0" encoding="UTF-8" standalone="no"?>
<svg
   xmlns:dc="http://purl.org/dc/elements/1.1/"
   xmlns:cc="http://creativecommons.org/ns#"
   xmlns:rdf="http://www.w3.org/1999/02/22-rdf-syntax-ns#"
   xmlns:svg="http://www.w3.org/2000/svg"
   xmlns="http://www.w3.org/2000/svg"
   xmlns:sodipodi="http://sodipodi.sourceforge.net/DTD/sodipodi-0.dtd"
   xmlns:inkscape="http://www.inkscape.org/namespaces/inkscape"
   viewBox="0 0 59.018936 59.237999"
   x="0px"
   y="0px"
   version="1.1"
   id="svg40"
   sodipodi:docname="Space.svg"
   width="59.018936"
   height="59.237999"
   inkscape:version="0.92.4 5da689c313, 2019-01-14">
  <metadata
     id="metadata46">
    <rdf:RDF>
      <cc:Work
         rdf:about="">
        <dc:format>image/svg+xml</dc:format>
        <dc:type
           rdf:resource="http://purl.org/dc/dcmitype/StillImage" />
        <dc:title></dc:title>
      </cc:Work>
    </rdf:RDF>
  </metadata>
  <defs
     id="defs44" />
  <sodipodi:namedview
     pagecolor="#ffffff"
     bordercolor="#666666"
     borderopacity="1"
     objecttolerance="10"
     gridtolerance="10"
     guidetolerance="10"
     inkscape:pageopacity="0"
     inkscape:pageshadow="2"
     inkscape:window-width="1920"
     inkscape:window-height="1053"
     id="namedview42"
     showgrid="false"
     fit-margin-top="0"
     fit-margin-left="0"
     fit-margin-right="0"
     fit-margin-bottom="0"
     inkscape:zoom="2.95"
     inkscape:cx="28.977095"
     inkscape:cy="21.242001"
     inkscape:window-x="0"
     inkscape:window-y="0"
     inkscape:window-maximized="1"
     inkscape:current-layer="svg40" />
  <g
     id="g34"
     transform="translate(-3.0229047,-2.004)">
    <path
       d="M 34.492,4.109 34.667,2.117 C 33.947,2.054 33.219,2.017 32.503,2.004 L 32.47,4 c 0.669,0.015 1.349,0.051 2.022,0.109 z"
       id="path2"
       inkscape:connector-curvature="0" />
    <path
       d="m 38.485,4.754 c 0.649,0.154 1.306,0.336 1.952,0.539 l 0.6,-1.908 C 40.345,3.167 39.642,2.974 38.946,2.809 Z"
       id="path4"
       inkscape:connector-curvature="0" />
    <path
       d="m 61.519,26.621 c -0.128,-0.706 -0.284,-1.419 -0.464,-2.119 l -1.937,0.5 c 0.168,0.653 0.314,1.318 0.433,1.977 z"
       id="path6"
       inkscape:connector-curvature="0" />
    <path
       d="m 26.034,2.594 0.4,1.961 c 0.653,-0.133 1.325,-0.243 2,-0.328 L 28.181,2.242 c -0.725,0.092 -1.446,0.21 -2.147,0.352 z"
       id="path8"
       inkscape:connector-curvature="0" />
    <path
       d="m 20.654,6.394 c 0.619,-0.275 1.252,-0.528 1.88,-0.753 L 21.857,3.758 C 21.185,4 20.507,4.271 19.844,4.565 Z"
       id="path10"
       inkscape:connector-curvature="0" />
    <path
       d="m 57.648,20 c 0.168,0.653 0.314,1.318 0.433,1.977 l 1.968,-0.356 c -0.128,-0.706 -0.284,-1.419 -0.464,-2.119 z"
       id="path12"
       inkscape:connector-curvature="0" />
    <path
       d="m 3.023,19.925 a 3.953,3.953 0 0 0 2.927,3.845 35.819,35.819 0 0 0 6.363,4.82 18.531,18.531 0 0 0 -0.041,6.555 c 0,0 0,0.008 0,0.012 0,0.004 0.008,0.032 0.01,0.049 q 0.142,0.874 0.358,1.721 l 0.044,0.17 q 0.213,0.806 0.488,1.581 c 0.034,0.1 0.07,0.192 0.105,0.287 0.178,0.475 0.369,0.942 0.581,1.4 0.064,0.139 0.132,0.275 0.2,0.412 0.2,0.412 0.414,0.817 0.643,1.212 0.1,0.17 0.2,0.336 0.3,0.5 0.223,0.359 0.452,0.713 0.7,1.057 0.126,0.178 0.26,0.35 0.392,0.524 0.249,0.328 0.5,0.651 0.771,0.962 0.139,0.161 0.284,0.314 0.428,0.471 0.289,0.315 0.583,0.624 0.892,0.92 0.134,0.128 0.274,0.25 0.412,0.374 0.339,0.308 0.684,0.608 1.044,0.893 0.04,0.031 0.075,0.067 0.115,0.1 0.018,0.014 0.04,0.019 0.059,0.032 A 19.877,19.877 0 0 0 32,52 c 0.576,0 1.142,-0.039 1.7,-0.086 v 0 a 0.864,0.864 0 0 0 0.088,0 h 0.015 c 0.349,-0.031 0.69,-0.085 1.034,-0.134 0.265,-0.038 0.531,-0.074 0.793,-0.122 0.314,-0.058 0.623,-0.127 0.932,-0.2 0.309,-0.073 0.587,-0.144 0.877,-0.226 0.29,-0.082 0.556,-0.16 0.829,-0.251 0.322,-0.106 0.637,-0.226 0.953,-0.349 0.24,-0.094 0.483,-0.181 0.719,-0.283 0.37,-0.161 0.731,-0.343 1.091,-0.527 0.414,-0.211 0.817,-0.438 1.214,-0.677 0.234,-0.141 0.473,-0.275 0.7,-0.427 0.32,-0.21 0.626,-0.439 0.932,-0.667 0.153,-0.113 0.307,-0.223 0.456,-0.341 0.32,-0.252 0.627,-0.515 0.93,-0.785 0.071,-0.063 0.146,-0.119 0.216,-0.183 0.016,-0.015 0.026,-0.035 0.041,-0.051 a 20.143,20.143 0 0 0 2.383,-2.621 c 0.416,0.11 0.84,0.226 1.24,0.324 a 30.21,30.21 0 0 0 6.821,1.051 c 2.484,0 3.223,-0.767 3.532,-1.478 0.534,-1.228 0.271,-3.451 -7.819,-8.549 0.074,-0.432 0.153,-0.863 0.2,-1.3 V 34.113 34.1 A 20.174,20.174 0 0 0 52,32 c 0,-0.6 -0.037,-1.19 -0.09,-1.782 -0.017,-0.188 -0.038,-0.374 -0.059,-0.56 -0.051,-0.426 -0.117,-0.849 -0.2,-1.27 -0.045,-0.245 -0.091,-0.49 -0.145,-0.732 -0.1,-0.423 -0.2,-0.844 -0.325,-1.26 -0.086,-0.293 -0.183,-0.581 -0.282,-0.869 -0.076,-0.222 -0.158,-0.442 -0.243,-0.662 a 19.814,19.814 0 0 0 -1.505,-3.092 c -0.06,-0.1 -0.112,-0.2 -0.173,-0.3 A 0.625,0.625 0 0 0 48.938,21.423 19.985,19.985 0 0 0 32,12 c -0.484,0 -0.959,0.039 -1.435,0.073 H 30.56 30.547 c -0.451,0.032 -0.9,0.082 -1.338,0.144 l -0.164,0.025 a 19.952,19.952 0 0 0 -11.834,6.34 l -0.168,0.185 c -0.267,0.3 -0.527,0.609 -0.776,0.926 -0.06,0.076 -0.117,0.155 -0.176,0.233 a 49.733,49.733 0 0 0 -5.247,-1.12 3.949,3.949 0 0 0 -3.811,-2.873 h -0.01 a 4,4 0 0 0 -4,3.991 z M 27.258,36.458 A 1.991,1.991 0 0 1 26,40 h -4 a 1,1 0 0 0 0,2 2,2 0 0 1 0,4 h -1.285 c -0.313,-0.253 -0.609,-0.522 -0.9,-0.792 -0.1,-0.091 -0.2,-0.177 -0.3,-0.27 -0.254,-0.245 -0.494,-0.5 -0.732,-0.76 -0.128,-0.138 -0.256,-0.275 -0.379,-0.417 -0.22,-0.253 -0.429,-0.513 -0.633,-0.777 -0.12,-0.155 -0.237,-0.312 -0.353,-0.471 -0.2,-0.277 -0.394,-0.558 -0.577,-0.845 -0.09,-0.141 -0.175,-0.285 -0.261,-0.429 -0.194,-0.324 -0.386,-0.65 -0.559,-0.986 -0.029,-0.055 -0.054,-0.113 -0.082,-0.169 A 17.88,17.88 0 0 1 14.47,36 H 26 a 1.906,1.906 0 0 1 0.332,0.034 c 0.308,0.141 0.615,0.283 0.926,0.424 z M 14.118,34 a 16.589,16.589 0 0 1 0.043,-4.281 C 16.5,31.111 19.172,32.557 22.076,34 Z M 34,49 a 2,2 0 0 1 2,-2 h 5.924 c -0.049,0.032 -0.1,0.06 -0.148,0.092 q -0.464,0.3 -0.945,0.576 c -0.165,0.093 -0.332,0.184 -0.5,0.273 -0.392,0.2 -0.79,0.4 -1.2,0.577 -0.138,0.06 -0.279,0.113 -0.419,0.169 q -0.534,0.216 -1.084,0.4 c -0.153,0.05 -0.3,0.1 -0.459,0.149 -0.4,0.121 -0.81,0.222 -1.222,0.315 -0.2,0.044 -0.391,0.087 -0.588,0.124 -0.383,0.073 -0.772,0.13 -1.163,0.178 A 1.9,1.9 0 0 1 34,49 Z M 44.416,45 H 36 a 4,4 0 0 0 -4,4 3.882,3.882 0 0 0 0.145,0.993 C 32.096,49.993 32.045,50 32,50 A 17.882,17.882 0 0 1 23.319,47.759 3.98,3.98 0 0 0 25.463,42 H 26 a 4,4 0 0 0 4,-4 c 0,-0.118 -0.025,-0.23 -0.035,-0.346 A 139.873,139.873 0 0 0 45.842,43.49 18.327,18.327 0 0 1 44.416,45 Z m 13.269,-1.858 c -0.522,0.6 -3.522,0.454 -8.584,-0.825 a 19.848,19.848 0 0 0 2.116,-4.834 c 5.383,3.466 6.493,5.281 6.468,5.659 z M 42,27 h -4 a 2,2 0 0 1 0,-4 h 9.564 c 0.01,0.017 0.021,0.033 0.03,0.049 0.165,0.285 0.318,0.575 0.466,0.868 0.066,0.13 0.128,0.262 0.19,0.394 0.224,0.469 0.424,0.947 0.6,1.432 0.072,0.192 0.147,0.382 0.212,0.577 0.084,0.25 0.158,0.5 0.231,0.755 0.081,0.284 0.154,0.57 0.222,0.859 0.046,0.2 0.1,0.395 0.137,0.595 0.091,0.464 0.162,0.936 0.216,1.413 0.018,0.153 0.032,0.306 0.046,0.459 0.047,0.528 0.081,1.059 0.081,1.6 0,0.338 -0.032,0.667 -0.051,1 H 42 a 2,2 0 0 1 0,-4 1,1 0 0 0 0,-2 z m 4.216,-6 H 38 a 4,4 0 0 0 0,8 h 0.537 A 4,4 0 0 0 42,35 h 7.729 A 17.876,17.876 0 0 1 47.091,41.778 133.888,133.888 0 0 1 30.4,35.666 Q 29.337,35.203 28.293,34.731 A 3.986,3.986 0 0 0 27.024,34.149 130.341,130.341 0 0 1 14.56,27.625 Q 14.768,26.797 15.05,26 H 24 a 4,4 0 0 0 3.463,-6 H 30 A 3.987,3.987 0 0 0 33.5,14.076 17.968,17.968 0 0 1 46.216,21 Z m -30.235,2.831 c 0.13,-0.253 0.264,-0.5 0.4,-0.749 0.093,-0.162 0.193,-0.32 0.291,-0.48 0.284,-0.459 0.586,-0.906 0.908,-1.336 0.071,-0.1 0.141,-0.193 0.215,-0.287 0.215,-0.275 0.435,-0.545 0.665,-0.807 l 0.036,-0.04 a 18.108,18.108 0 0 1 10.816,-5.91 l 0.108,-0.016 c 0.371,-0.054 0.745,-0.1 1.122,-0.128 A 2,2 0 0 1 30,18 h -6 a 1,1 0 0 0 0,2 2,2 0 0 1 0,4 h -8.1 c 0.027,-0.056 0.053,-0.113 0.081,-0.169 z m -5.07,-2.993 c 1.171,0.189 2.508,0.476 3.984,0.85 -0.095,0.157 -0.2,0.311 -0.286,0.472 -0.16,0.282 -0.308,0.571 -0.455,0.861 q -0.159,0.315 -0.307,0.636 c -0.137,0.3 -0.272,0.594 -0.395,0.9 -0.01,0.026 -0.023,0.05 -0.033,0.076 -0.01,0.026 -0.008,0.035 -0.014,0.052 q -0.354,0.9 -0.622,1.831 a 41.854,41.854 0 0 1 -4.1,-2.949 3.908,3.908 0 0 0 2.233,-2.727 z m -5.3,-2.322 a 1.992,1.992 0 0 1 1.411,-0.582 v 0 a 2,2 0 0 1 0,4 v 0 A 2,2 0 0 1 5.615,18.516 Z"
       id="path14"
       inkscape:connector-curvature="0" />
    <path
       d="m 11.7,60.747 1.941,-1.372 a 10.461,10.461 0 0 0 5.178,-0.262 c 0.015,0 0.027,-0.014 0.042,-0.019 0.015,-0.005 0.021,0 0.031,-0.006 l 3.26,-1.268 a 2.4,2.4 0 0 0 0.7,-4.054 L 20.2,51.484 C 20.19,51.476 20.177,51.471 20.167,51.463 20.157,51.455 20.15,51.444 20.14,51.437 a 10.945,10.945 0 0 0 -4.8,-1.978 L 13.97,47.525 A 1.016,1.016 0 0 0 13.556,47.188 L 9.783,45.527 a 1,1 0 0 0 -1.36,1.2 l 0.5,1.662 -3.823,-0.651 -0.338,1.971 4.811,0.825 0.077,0.252 -0.3,1.739 -1.971,-0.337 -0.338,1.97 1.971,0.338 -0.3,1.739 -0.156,0.213 -4.811,-0.825 -0.338,1.971 3.826,0.656 -1.028,1.4 a 1,1 0 0 0 0.807,1.592 q 0.038,0 0.075,0 l 4.111,-0.31 A 1,1 0 0 0 11.7,60.747 Z m 2.15,-3.355 -0.015,-0.009 -3.055,-1.347 0.749,-4.375 3.333,-0.252 h 0.009 a 8.96,8.96 0 0 1 3.581,1.3 l -0.8,4.65 a 8.946,8.946 0 0 1 -3.798,0.033 z m 7.827,-1.741 a 0.388,0.388 0 0 1 -0.249,0.306 l -1.615,0.627 0.417,-2.432 1.313,1.13 a 0.385,0.385 0 0 1 0.138,0.369 z m -9.177,-6.744 0.318,0.449 a 11.01,11.01 0 0 0 -1.449,0.2 l -0.4,-1.32 z M 9.108,59.08 9.924,57.97 a 10.922,10.922 0 0 0 1.291,0.673 l -0.44,0.311 z"
       id="path16"
       inkscape:connector-curvature="0" />
    <rect
       x="15.083"
       y="53.692001"
       width="1.999"
       height="2"
       transform="rotate(-80.271,16.0824,54.692244)"
       id="rect18" />
    <rect
       x="3.2550001"
       y="51.666"
       width="1.999"
       height="2"
       transform="rotate(-80.273,4.2550596,52.666283)"
       id="rect20" />
    <path
       d="M 54.8,10.941 58.23,8.883 A 1,1 0 0 0 58.422,7.318 L 54.182,3.075 A 1.009,1.009 0 0 0 53.353,2.79 1,1 0 0 0 52.618,3.268 L 50.559,6.7 49.235,8.023 48.527,7.315 l 0.7,-0.7 a 1,1 0 0 0 0,-1.414 L 46.4,2.368 a 1,1 0 0 0 -1.414,0 L 42.161,5.2 a 1,1 0 0 0 0,1.414 l 2.829,2.825 a 1,1 0 0 0 1.414,0 L 47.113,8.73 47.82,9.437 46.4,10.854 a 1,1 0 0 0 0,1.414 l 0.707,0.707 -0.964,0.963 a 1.0002026,1.0002026 0 1 0 1.414,1.415 l 0.964,-0.965 0.707,0.708 a 1,1 0 0 0 1.414,0 l 1.415,-1.414 0.707,0.707 -0.707,0.708 a 1,1 0 0 0 0,1.414 l 2.828,2.828 a 1,1 0 0 0 1.414,0 l 2.829,-2.828 a 1,1 0 0 0 0,-1.414 L 56.3,12.268 a 1.029,1.029 0 0 0 -1.414,0 l -0.707,0.707 -0.707,-0.707 z M 45.7,7.318 44.282,5.9 45.7,4.489 47.111,5.9 Z M 55.6,14.389 57.011,15.8 55.6,17.218 54.182,15.8 Z M 53.673,5.4 56.1,7.827 54.337,8.888 53.475,8.025 52.613,7.163 Z m -3.734,7.579 -1.414,-1.414 2.829,-2.829 1.414,1.414 z"
       id="path22"
       inkscape:connector-curvature="0" />
    <rect
       x="49"
       y="52"
       width="2"
       height="2"
       id="rect24" />
    <rect
       x="60"
       y="30"
       width="2"
       height="2"
       transform="rotate(-87.537,61.000184,31.000387)"
       id="rect26" />
    <rect
       x="46"
       y="55"
       width="2"
       height="2"
       id="rect28" />
    <rect
       x="52"
       y="55"
       width="2"
       height="2"
       id="rect30" />
    <rect
       x="49"
       y="58"
       width="2"
       height="2"
       id="rect32" />
  </g>
</svg>
