<?xml version="1.0" encoding="UTF-8" standalone="no"?>
<svg
   xmlns:dc="http://purl.org/dc/elements/1.1/"
   xmlns:cc="http://creativecommons.org/ns#"
   xmlns:rdf="http://www.w3.org/1999/02/22-rdf-syntax-ns#"
   xmlns:svg="http://www.w3.org/2000/svg"
   xmlns="http://www.w3.org/2000/svg"
   xmlns:sodipodi="http://sodipodi.sourceforge.net/DTD/sodipodi-0.dtd"
   xmlns:inkscape="http://www.inkscape.org/namespaces/inkscape"
   viewBox="0 0 54.000137 53.999981"
   x="0px"
   y="0px"
   version="1.1"
   id="svg10"
   sodipodi:docname="vitruvian.svg"
   width="54.000137"
   height="53.999981"
   inkscape:version="0.92.4 5da689c313, 2019-01-14">
  <metadata
     id="metadata16">
    <rdf:RDF>
      <cc:Work
         rdf:about="">
        <dc:format>image/svg+xml</dc:format>
        <dc:type
           rdf:resource="http://purl.org/dc/dcmitype/StillImage" />
        <dc:title></dc:title>
      </cc:Work>
    </rdf:RDF>
  </metadata>
  <defs
     id="defs14" />
  <sodipodi:namedview
     pagecolor="#ffffff"
     bordercolor="#666666"
     borderopacity="1"
     objecttolerance="10"
     gridtolerance="10"
     guidetolerance="10"
     inkscape:pageopacity="0"
     inkscape:pageshadow="2"
     inkscape:window-width="1920"
     inkscape:window-height="1053"
     id="namedview12"
     showgrid="false"
     fit-margin-top="0"
     fit-margin-left="0"
     fit-margin-right="0"
     fit-margin-bottom="0"
     inkscape:zoom="2.95"
     inkscape:cx="-10.62705"
     inkscape:cy="19"
     inkscape:window-x="0"
     inkscape:window-y="0"
     inkscape:window-maximized="1"
     inkscape:current-layer="svg10" />
  <g
     id="g4"
     transform="translate(-4.9999318,-5.0000206)">
    <path
       d="M 9,46.123 V 58 a 1,1 0 0 0 1,1 h 44 a 1,1 0 0 0 1,-1 V 46.123 A 26.932,26.932 0 0 0 55,17.877 V 12 A 1,1 0 0 0 54,11 H 48.944 A 26.925,26.925 0 0 0 15.056,11 H 10 a 1,1 0 0 0 -1,1 v 5.877 a 26.932,26.932 0 0 0 0,28.246 z m 2,2.821 a 27.15,27.15 0 0 0 3.993,4.006 c 0.015,0.014 0.022,0.034 0.038,0.047 0.116,0.094 0.242,0.175 0.359,0.266 q 0.583,0.458 1.191,0.882 c 0.153,0.107 0.3,0.214 0.459,0.318 0.485,0.324 0.984,0.63 1.492,0.923 0.088,0.051 0.172,0.111 0.261,0.161 0.021,0.012 0.043,0.016 0.065,0.026 A 26.86,26.86 0 0 0 21.817,57 H 11 Z M 15.779,13 H 27.837 A 5.467,5.467 0 0 0 29,21.174 v 0.91 h -1.5 l -6.791,-6.791 a 1,1 0 0 0 -1.414,0 l -3,3 a 1,1 0 0 0 0,1.414 l 2.377,2.377 H 14 a 1,1 0 0 0 -1,1 v 4 a 1,1 0 0 0 1,1 H 25 V 39.633 L 15.55,50.8 A 25.2,25.2 0 0 1 11,45.539 V 18.461 A 25.172,25.172 0 0 1 15.779,13 Z M 53,18.461 V 45.539 A 25.2,25.2 0 0 1 48.45,50.8 L 39,39.633 V 28.084 h 11 a 1,1 0 0 0 1,-1 v -4 a 1,1 0 0 0 -1,-1 h -4.67 l 2.377,-2.377 a 1,1 0 0 0 0,-1.414 l -3,-3 a 1,1 0 0 0 -1.414,0 L 36.5,22.084 H 35 v -0.91 A 5.467,5.467 0 0 0 36.163,13 H 48.221 A 25.172,25.172 0 0 1 53,18.461 Z m -6.313,33.752 c -0.545,0.4 -1.1,0.775 -1.676,1.126 L 44.923,53.393 39,46.624 V 42.73 l 7.9,9.333 c -0.071,0.051 -0.143,0.099 -0.213,0.15 z m -29.374,0 c -0.07,-0.051 -0.142,-0.1 -0.211,-0.15 L 25,42.73 v 3.894 l -5.923,6.769 -0.088,-0.054 c -0.574,-0.351 -1.131,-0.73 -1.676,-1.126 z M 21.5,22.084 18.414,19 20,17.414 l 4.67,4.67 z m 8.5,2 a 1,1 0 0 0 1,-1 V 20.6 a 1,1 0 0 0 -0.553,-0.895 3.5,3.5 0 1 1 3.106,0 A 1,1 0 0 0 33,20.6 v 2.488 a 1,1 0 0 0 1,1 h 15 v 2 H 38 a 1,1 0 0 0 -1,1 v 29.404 c -0.66,0.133 -1.328,0.241 -2,0.321 V 42.084 a 3,3 0 0 0 -6,0 v 14.729 c -0.672,-0.08 -1.34,-0.188 -2,-0.321 V 27.084 a 1,1 0 0 0 -1,-1 H 15 v -2 z m 9.33,-2 L 44,17.414 45.586,19 42.5,22.084 Z M 25,49.662 V 56 a 24.761,24.761 0 0 1 -4.127,-1.617 z m 6,7.313 V 42.084 a 1,1 0 0 1 2,0 V 56.975 C 32.668,56.988 32.335,57 32,57 31.665,57 31.332,56.988 31,56.975 Z m 8,-7.313 4.127,4.716 A 24.761,24.761 0 0 1 39,56 Z M 53,57 H 42.183 a 26.86,26.86 0 0 0 2.959,-1.427 c 0.022,-0.01 0.044,-0.014 0.065,-0.026 0.089,-0.05 0.173,-0.11 0.261,-0.161 0.508,-0.293 1.007,-0.6 1.492,-0.923 0.155,-0.1 0.306,-0.211 0.459,-0.318 q 0.608,-0.425 1.191,-0.882 c 0.117,-0.091 0.243,-0.172 0.359,-0.266 0.016,-0.013 0.023,-0.033 0.038,-0.047 A 27.15,27.15 0 0 0 53,48.944 Z m 4,-25 a 24.86,24.86 0 0 1 -2,9.793 V 22.207 A 24.86,24.86 0 0 1 57,32 Z M 53,15.056 A 27.37,27.37 0 0 0 51.162,13 H 53 Z M 32,7 a 24.848,24.848 0 0 1 13.539,4 H 18.461 A 24.848,24.848 0 0 1 32,7 Z m -21,6 h 1.838 A 27.37,27.37 0 0 0 11,15.056 Z M 9,41.793 A 24.976,24.976 0 0 1 9,22.207 Z"
       id="path2"
       inkscape:connector-curvature="0" />
  </g>
</svg>
